# xmcd
#
# Track frame offsets:
#	150
#	14112
#	36759
#	53454
#	70689
#	84727
#	101758
#	121925
#	139653
#	158120
#	184159
#	201073
#	221187
#	245338
#
# Disc length: 3466 seconds
#
# Revision: 0
# Processed by: cddbd v1.5.2PL0 Copyright (c) Steve Scherf et al.
# Submitted via: audiograbber 1.83.01
#
DISCID=c40d880e
DTITLE=Angus and Julia Stone - Memories Of An Old Friend [Bonus Disc of Down The 
DTITLE=Way]
DYEAR=2010
DGENRE=Folk
TTITLE0=Private Lawns
TTITLE1=Babylon
TTITLE2=Paper Aeroplane
TTITLE3=Take You Away
TTITLE4=My Malakai
TTITLE5=Lonely Hands
TTITLE6=Little Bird
TTITLE7=Chocalates And Cigarettes
TTITLE8=Old Friend
TTITLE9=Choking
TTITLE10=Mango Tree
TTITLE11=Heart Full Of Wine
TTITLE12=All Of Me
TTITLE13=You're The One That I Want
EXTD=
EXTT0=
EXTT1=
EXTT2=
EXTT3=
EXTT4=
EXTT5=
EXTT6=
EXTT7=
EXTT8=
EXTT9=
EXTT10=
EXTT11=
EXTT12=
EXTT13=
PLAYORDER=
